<?xml version="1.0" encoding="UTF-8"?><svg xmlns="http://www.w3.org/2000/svg" xmlns:xlink="http://www.w3.org/1999/xlink" fill-opacity="1" color-rendering="auto" color-interpolation="auto" text-rendering="auto" stroke="black" stroke-linecap="square" width="311" stroke-miterlimit="10" shape-rendering="auto" stroke-opacity="1" fill="black" stroke-dasharray="none" font-weight="normal" stroke-width="1" height="172" font-family="'Dialog'" font-style="normal" stroke-linejoin="miter" font-size="12px" stroke-dashoffset="0" image-rendering="auto">
  <!--Generated by ySVG 2.5-->
  <defs id="genericDefs"/>
  <g>
    <defs id="defs1">
      <clipPath clipPathUnits="userSpaceOnUse" id="clipPath1">
        <path d="M0 0 L311 0 L311 172 L0 172 L0 0 Z"/>
      </clipPath>
      <clipPath clipPathUnits="userSpaceOnUse" id="clipPath2">
        <path d="M7 173 L318 173 L318 345 L7 345 L7 173 Z"/>
      </clipPath>
    </defs>
    <g fill="white" text-rendering="geometricPrecision" shape-rendering="geometricPrecision" transform="translate(-7,-173)" stroke="white">
      <rect x="7" width="311" height="172" y="173" clip-path="url(#clipPath2)" stroke="none"/>
    </g>
    <g fill="rgb(224,152,172)" text-rendering="geometricPrecision" shape-rendering="geometricPrecision" transform="matrix(1,0,0,1,-7,-173)" stroke="rgb(224,152,172)">
      <circle r="15" clip-path="url(#clipPath2)" cx="117.2051" cy="314.9385" stroke="none"/>
    </g>
    <g font-size="16px" stroke-linecap="butt" transform="matrix(1,0,0,1,-7,-173)" text-rendering="geometricPrecision" font-family="'Roboto'" shape-rendering="geometricPrecision" stroke-miterlimit="1.45">
      <text x="108.2207" xml:space="preserve" y="320.4073" clip-path="url(#clipPath2)" stroke="none">37</text>
    </g>
    <g fill="rgb(224,152,172)" text-rendering="geometricPrecision" shape-rendering="geometricPrecision" transform="matrix(1,0,0,1,-7,-173)" stroke="rgb(224,152,172)">
      <circle r="15" clip-path="url(#clipPath2)" cx="37.2981" cy="284.9385" stroke="none"/>
    </g>
    <g font-size="16px" stroke-linecap="butt" transform="matrix(1,0,0,1,-7,-173)" text-rendering="geometricPrecision" font-family="'Roboto'" shape-rendering="geometricPrecision" stroke-miterlimit="1.45">
      <text x="28.3137" xml:space="preserve" y="290.4073" clip-path="url(#clipPath2)" stroke="none">58</text>
    </g>
    <g fill="rgb(224,152,172)" text-rendering="geometricPrecision" shape-rendering="geometricPrecision" transform="matrix(1,0,0,1,-7,-173)" stroke="rgb(224,152,172)">
      <circle r="15" clip-path="url(#clipPath2)" cx="287.2548" cy="284.9385" stroke="none"/>
    </g>
    <g font-size="16px" stroke-linecap="butt" transform="matrix(1,0,0,1,-7,-173)" text-rendering="geometricPrecision" font-family="'Roboto'" shape-rendering="geometricPrecision" stroke-miterlimit="1.45">
      <text x="282.7626" xml:space="preserve" y="290.4073" clip-path="url(#clipPath2)" stroke="none">4</text>
    </g>
    <g fill="rgb(224,152,172)" text-rendering="geometricPrecision" shape-rendering="geometricPrecision" transform="matrix(1,0,0,1,-7,-173)" stroke="rgb(224,152,172)">
      <circle r="15" clip-path="url(#clipPath2)" cx="208.7848" cy="203.0472" stroke="none"/>
    </g>
    <g font-size="16px" stroke-linecap="butt" transform="matrix(1,0,0,1,-7,-173)" text-rendering="geometricPrecision" font-family="'Roboto'" shape-rendering="geometricPrecision" stroke-miterlimit="1.45">
      <text x="199.8004" xml:space="preserve" y="208.5159" clip-path="url(#clipPath2)" stroke="none">42</text>
    </g>
    <g fill="rgb(224,152,172)" text-rendering="geometricPrecision" shape-rendering="geometricPrecision" transform="matrix(1,0,0,1,-7,-173)" stroke="rgb(224,152,172)">
      <circle r="15" clip-path="url(#clipPath2)" cx="37.2981" cy="233.0472" stroke="none"/>
    </g>
    <g font-size="16px" stroke-linecap="butt" transform="matrix(1,0,0,1,-7,-173)" text-rendering="geometricPrecision" font-family="'Roboto'" shape-rendering="geometricPrecision" stroke-miterlimit="1.45">
      <text x="28.3137" xml:space="preserve" y="238.5159" clip-path="url(#clipPath2)" stroke="none">89</text>
    </g>
    <g fill="rgb(224,152,172)" text-rendering="geometricPrecision" shape-rendering="geometricPrecision" transform="matrix(1,0,0,1,-7,-173)" stroke="rgb(224,152,172)">
      <circle r="15" clip-path="url(#clipPath2)" cx="122.0802" cy="203.0472" stroke="none"/>
    </g>
    <g font-size="16px" stroke-linecap="butt" transform="matrix(1,0,0,1,-7,-173)" text-rendering="geometricPrecision" font-family="'Roboto'" shape-rendering="geometricPrecision" stroke-miterlimit="1.45">
      <text x="108.6036" xml:space="preserve" y="208.5159" clip-path="url(#clipPath2)" stroke="none">145</text>
    </g>
    <g fill="rgb(224,152,172)" text-rendering="geometricPrecision" shape-rendering="geometricPrecision" transform="matrix(1,0,0,1,-7,-173)" stroke="rgb(224,152,172)">
      <circle r="15" clip-path="url(#clipPath2)" cx="287.2548" cy="233.0472" stroke="none"/>
    </g>
    <g font-size="16px" stroke-linecap="butt" transform="matrix(1,0,0,1,-7,-173)" text-rendering="geometricPrecision" font-family="'Roboto'" shape-rendering="geometricPrecision" stroke-miterlimit="1.45">
      <text x="278.2704" xml:space="preserve" y="238.5159" clip-path="url(#clipPath2)" stroke="none">20</text>
    </g>
    <g fill="rgb(224,152,172)" text-rendering="geometricPrecision" shape-rendering="geometricPrecision" transform="matrix(1,0,0,1,-7,-173)" stroke="rgb(224,152,172)">
      <circle r="15" clip-path="url(#clipPath2)" cx="208.7848" cy="314.9385" stroke="none"/>
    </g>
    <g font-size="16px" stroke-linecap="butt" transform="matrix(1,0,0,1,-7,-173)" text-rendering="geometricPrecision" font-family="'Roboto'" shape-rendering="geometricPrecision" stroke-miterlimit="1.45">
      <text x="199.8004" xml:space="preserve" y="320.4073" clip-path="url(#clipPath2)" stroke="none">16</text>
      <path fill="none" d="M103.1622 309.6663 L58.8306 293.0226" clip-path="url(#clipPath2)"/>
      <path d="M51.341 290.2107 L60.8179 299.1095 L59.7668 293.3741 L64.3328 289.7475 Z" stroke="none" clip-path="url(#clipPath2)"/>
      <path fill="none" d="M37.2981 269.9385 L37.2981 256.0471" clip-path="url(#clipPath2)"/>
      <path d="M37.2981 248.0471 L32.2981 260.0471 L37.2981 257.0471 L42.2981 260.0471 Z" stroke="none" clip-path="url(#clipPath2)"/>
      <path fill="none" d="M51.4389 228.0435 L100.3976 210.7195" clip-path="url(#clipPath2)"/>
      <path d="M107.9394 208.0509 L94.9588 207.3402 L99.4549 211.0531 L98.2946 216.7674 Z" stroke="none" clip-path="url(#clipPath2)"/>
      <path fill="none" d="M137.0802 203.0471 L185.7848 203.0471" clip-path="url(#clipPath2)"/>
      <path d="M193.7848 203.0471 L181.7848 198.0471 L184.7848 203.0471 L181.7848 208.0471 Z" stroke="none" clip-path="url(#clipPath2)"/>
      <path fill="none" d="M222.7958 208.4037 L265.7713 224.8338" clip-path="url(#clipPath2)"/>
      <path d="M273.2438 227.6906 L263.8206 218.735 L264.8372 224.4767 L260.2495 228.0757 Z" stroke="none" clip-path="url(#clipPath2)"/>
      <path fill="none" d="M287.2548 248.0471 L287.2548 261.9385" clip-path="url(#clipPath2)"/>
      <path d="M287.2548 269.9385 L292.2548 257.9385 L287.2548 260.9385 L282.2548 257.9385 Z" stroke="none" clip-path="url(#clipPath2)"/>
      <path fill="none" d="M273.2438 290.295 L230.2683 306.7251" clip-path="url(#clipPath2)"/>
      <path d="M222.7958 309.5819 L235.7901 309.967 L231.2024 306.368 L232.219 300.6264 Z" stroke="none" clip-path="url(#clipPath2)"/>
      <path fill="none" d="M193.7848 314.9385 L140.2051 314.9385" clip-path="url(#clipPath2)"/>
      <path d="M132.2051 314.9385 L144.2051 319.9385 L141.2051 314.9385 L144.2051 309.9385 Z" stroke="none" clip-path="url(#clipPath2)"/>
    </g>
  </g>
</svg>
