<?xml version="1.0" encoding="UTF-8"?><svg xmlns="http://www.w3.org/2000/svg" xmlns:xlink="http://www.w3.org/1999/xlink" fill-opacity="1" color-rendering="auto" color-interpolation="auto" text-rendering="auto" stroke="black" stroke-linecap="square" width="348" stroke-miterlimit="10" shape-rendering="auto" stroke-opacity="1" fill="black" stroke-dasharray="none" font-weight="normal" stroke-width="1" height="61" font-family="'Dialog'" font-style="normal" stroke-linejoin="miter" font-size="12px" stroke-dashoffset="0" image-rendering="auto">
  <!--Generated by ySVG 2.5-->
  <defs id="genericDefs"/>
  <g>
    <defs id="defs1">
      <clipPath clipPathUnits="userSpaceOnUse" id="clipPath1">
        <path d="M0 0 L348 0 L348 61 L0 61 L0 0 Z"/>
      </clipPath>
      <clipPath clipPathUnits="userSpaceOnUse" id="clipPath2">
        <path d="M135 476 L483 476 L483 537 L135 537 L135 476 Z"/>
      </clipPath>
    </defs>
    <g fill="white" text-rendering="geometricPrecision" shape-rendering="geometricPrecision" transform="translate(-135,-476)" stroke="white">
      <rect x="135" width="348" height="61" y="476" clip-path="url(#clipPath2)" stroke="none"/>
    </g>
    <g fill="rgb(224,152,172)" text-rendering="geometricPrecision" shape-rendering="geometricPrecision" transform="matrix(1,0,0,1,-135,-476)" stroke="rgb(224,152,172)">
      <circle r="15" clip-path="url(#clipPath2)" cx="309.4303" cy="506.3593" stroke="none"/>
    </g>
    <g font-size="16px" stroke-linecap="butt" transform="matrix(1,0,0,1,-135,-476)" text-rendering="geometricPrecision" font-family="'Roboto'" shape-rendering="geometricPrecision" stroke-miterlimit="1.45">
      <text x="300.446" xml:space="preserve" y="511.828" clip-path="url(#clipPath2)" stroke="none">68</text>
    </g>
    <g fill="rgb(224,152,172)" text-rendering="geometricPrecision" shape-rendering="geometricPrecision" transform="matrix(1,0,0,1,-135,-476)" stroke="rgb(224,152,172)">
      <circle r="15" clip-path="url(#clipPath2)" cx="237.9634" cy="506.3593" stroke="none"/>
    </g>
    <g font-size="16px" stroke-linecap="butt" transform="matrix(1,0,0,1,-135,-476)" text-rendering="geometricPrecision" font-family="'Roboto'" shape-rendering="geometricPrecision" stroke-miterlimit="1.45">
      <text x="228.979" xml:space="preserve" y="511.828" clip-path="url(#clipPath2)" stroke="none">82</text>
      <text x="152.7269" xml:space="preserve" y="511.828" clip-path="url(#clipPath2)" font-weight="bold" stroke="none">109</text>
    </g>
    <g fill="rgb(224,152,172)" text-rendering="geometricPrecision" shape-rendering="geometricPrecision" transform="matrix(1,0,0,1,-135,-476)" stroke="rgb(224,152,172)">
      <circle r="15" clip-path="url(#clipPath2)" cx="380.8973" cy="506.3593" stroke="none"/>
    </g>
    <g font-size="16px" stroke-linecap="butt" transform="matrix(1,0,0,1,-135,-476)" text-rendering="geometricPrecision" font-family="'Roboto'" shape-rendering="geometricPrecision" stroke-miterlimit="1.45">
      <text x="367.4207" xml:space="preserve" y="511.828" clip-path="url(#clipPath2)" stroke="none">100</text>
    </g>
    <g fill="rgb(153,204,0)" text-rendering="geometricPrecision" shape-rendering="geometricPrecision" transform="matrix(1,0,0,1,-135,-476)" stroke="rgb(153,204,0)">
      <circle r="15" clip-path="url(#clipPath2)" cx="452.3642" cy="506.3593" stroke="none"/>
    </g>
    <g font-size="16px" stroke-linecap="butt" transform="matrix(1,0,0,1,-135,-476)" text-rendering="geometricPrecision" font-family="'Roboto'" shape-rendering="geometricPrecision" stroke-miterlimit="1.45">
      <text x="447.872" xml:space="preserve" y="511.828" clip-path="url(#clipPath2)" stroke="none">1</text>
      <path fill="none" d="M252.9634 506.3593 L286.4303 506.3593" clip-path="url(#clipPath2)"/>
      <path d="M294.4303 506.3593 L282.4303 501.3593 L285.4303 506.3593 L282.4303 511.3593 Z" stroke="none" clip-path="url(#clipPath2)"/>
      <path fill="none" d="M181.4965 506.3593 L214.9634 506.3593" clip-path="url(#clipPath2)"/>
      <path d="M222.9634 506.3593 L210.9634 501.3593 L213.9634 506.3593 L210.9634 511.3593 Z" stroke="none" clip-path="url(#clipPath2)"/>
      <path fill="none" d="M324.4303 506.3593 L357.8973 506.3593" clip-path="url(#clipPath2)"/>
      <path d="M365.8973 506.3593 L353.8973 501.3593 L356.8973 506.3593 L353.8973 511.3593 Z" stroke="none" clip-path="url(#clipPath2)"/>
      <path fill="none" d="M395.8973 506.3593 L429.3642 506.3593" clip-path="url(#clipPath2)"/>
      <path d="M437.3642 506.3593 L425.3642 501.3593 L428.3642 506.3593 L425.3642 511.3593 Z" stroke="none" clip-path="url(#clipPath2)"/>
    </g>
  </g>
</svg>
