<?xml version="1.0" encoding="UTF-8"?><svg xmlns="http://www.w3.org/2000/svg" xmlns:xlink="http://www.w3.org/1999/xlink" fill-opacity="1" color-rendering="auto" color-interpolation="auto" text-rendering="auto" stroke="black" stroke-linecap="square" width="371" stroke-miterlimit="10" shape-rendering="auto" stroke-opacity="1" fill="black" stroke-dasharray="none" font-weight="normal" stroke-width="1" height="150" font-family="'Dialog'" font-style="normal" stroke-linejoin="miter" font-size="12px" stroke-dashoffset="0" image-rendering="auto">
  <!--Generated by ySVG 2.5-->
  <defs id="genericDefs"/>
  <g>
    <defs id="defs1">
      <clipPath clipPathUnits="userSpaceOnUse" id="clipPath1">
        <path d="M0 0 L371 0 L371 150 L0 150 L0 0 Z"/>
      </clipPath>
      <clipPath clipPathUnits="userSpaceOnUse" id="clipPath2">
        <path d="M211 231 L582 231 L582 381 L211 381 L211 231 Z"/>
      </clipPath>
    </defs>
    <g fill="white" text-rendering="geometricPrecision" shape-rendering="geometricPrecision" transform="translate(-211,-231)" stroke="white">
      <rect x="211" width="371" height="150" y="231" clip-path="url(#clipPath2)" stroke="none"/>
    </g>
    <g fill="rgb(196,156,148)" text-rendering="geometricPrecision" shape-rendering="geometricPrecision" transform="matrix(1,0,0,1,-211,-231)" stroke="rgb(196,156,148)">
      <rect x="227" width="30" height="30" y="246" clip-path="url(#clipPath2)" stroke="none"/>
    </g>
    <g text-rendering="geometricPrecision" stroke-miterlimit="1.45" shape-rendering="geometricPrecision" transform="matrix(1,0,0,1,-211,-231)" stroke-linecap="butt">
      <rect fill="none" x="227" width="30" height="30" y="246" clip-path="url(#clipPath2)"/>
    </g>
    <g fill="rgb(196,156,148)" text-rendering="geometricPrecision" shape-rendering="geometricPrecision" transform="matrix(1,0,0,1,-211,-231)" stroke="rgb(196,156,148)">
      <rect x="257" width="30" height="30" y="246" clip-path="url(#clipPath2)" stroke="none"/>
    </g>
    <g text-rendering="geometricPrecision" stroke-miterlimit="1.45" shape-rendering="geometricPrecision" transform="matrix(1,0,0,1,-211,-231)" stroke-linecap="butt">
      <rect fill="none" x="257" width="30" height="30" y="246" clip-path="url(#clipPath2)"/>
    </g>
    <g fill="rgb(196,156,148)" text-rendering="geometricPrecision" shape-rendering="geometricPrecision" transform="matrix(1,0,0,1,-211,-231)" stroke="rgb(196,156,148)">
      <rect x="227" width="30" height="30" y="276" clip-path="url(#clipPath2)" stroke="none"/>
    </g>
    <g text-rendering="geometricPrecision" stroke-miterlimit="1.45" shape-rendering="geometricPrecision" transform="matrix(1,0,0,1,-211,-231)" stroke-linecap="butt">
      <rect fill="none" x="227" width="30" height="30" y="276" clip-path="url(#clipPath2)"/>
    </g>
    <g fill="rgb(196,156,148)" text-rendering="geometricPrecision" shape-rendering="geometricPrecision" transform="matrix(1,0,0,1,-211,-231)" stroke="rgb(196,156,148)">
      <rect x="257" width="30" height="30" y="276" clip-path="url(#clipPath2)" stroke="none"/>
    </g>
    <g text-rendering="geometricPrecision" stroke-miterlimit="1.45" shape-rendering="geometricPrecision" transform="matrix(1,0,0,1,-211,-231)" stroke-linecap="butt">
      <rect fill="none" x="257" width="30" height="30" y="276" clip-path="url(#clipPath2)"/>
    </g>
    <g transform="matrix(1,0,0,1,-211,-231)" fill-opacity="0.2471" fill="rgb(158,218,229)" text-rendering="geometricPrecision" shape-rendering="geometricPrecision" stroke="rgb(158,218,229)" stroke-opacity="0.2471">
      <rect x="287" width="30" height="30" y="246" clip-path="url(#clipPath2)" stroke="none"/>
    </g>
    <g text-rendering="geometricPrecision" stroke-miterlimit="1.45" shape-rendering="geometricPrecision" transform="matrix(1,0,0,1,-211,-231)" stroke-linecap="butt">
      <rect fill="none" x="287" width="30" height="30" y="246" clip-path="url(#clipPath2)"/>
    </g>
    <g transform="matrix(1,0,0,1,-211,-231)" fill-opacity="0.2471" fill="rgb(158,218,229)" text-rendering="geometricPrecision" shape-rendering="geometricPrecision" stroke="rgb(158,218,229)" stroke-opacity="0.2471">
      <rect x="287" width="30" height="30" y="276" clip-path="url(#clipPath2)" stroke="none"/>
    </g>
    <g text-rendering="geometricPrecision" stroke-miterlimit="1.45" shape-rendering="geometricPrecision" transform="matrix(1,0,0,1,-211,-231)" stroke-linecap="butt">
      <rect fill="none" x="287" width="30" height="30" y="276" clip-path="url(#clipPath2)"/>
    </g>
    <g transform="matrix(1,0,0,1,-211,-231)" fill-opacity="0.2471" fill="rgb(158,218,229)" text-rendering="geometricPrecision" shape-rendering="geometricPrecision" stroke="rgb(158,218,229)" stroke-opacity="0.2471">
      <rect x="317" width="30" height="30" y="276" clip-path="url(#clipPath2)" stroke="none"/>
    </g>
    <g text-rendering="geometricPrecision" stroke-miterlimit="1.45" shape-rendering="geometricPrecision" transform="matrix(1,0,0,1,-211,-231)" stroke-linecap="butt">
      <rect fill="none" x="317" width="30" height="30" y="276" clip-path="url(#clipPath2)"/>
    </g>
    <g fill="rgb(247,182,210)" text-rendering="geometricPrecision" shape-rendering="geometricPrecision" transform="matrix(1,0,0,1,-211,-231)" stroke="rgb(247,182,210)">
      <rect x="347" width="30" height="30" y="246" clip-path="url(#clipPath2)" stroke="none"/>
    </g>
    <g text-rendering="geometricPrecision" stroke-miterlimit="1.45" shape-rendering="geometricPrecision" transform="matrix(1,0,0,1,-211,-231)" stroke-linecap="butt">
      <rect fill="none" x="347" width="30" height="30" y="246" clip-path="url(#clipPath2)"/>
    </g>
    <g fill="rgb(247,182,210)" text-rendering="geometricPrecision" shape-rendering="geometricPrecision" transform="matrix(1,0,0,1,-211,-231)" stroke="rgb(247,182,210)">
      <rect x="377" width="30" height="30" y="246" clip-path="url(#clipPath2)" stroke="none"/>
    </g>
    <g text-rendering="geometricPrecision" stroke-miterlimit="1.45" shape-rendering="geometricPrecision" transform="matrix(1,0,0,1,-211,-231)" stroke-linecap="butt">
      <rect fill="none" x="377" width="30" height="30" y="246" clip-path="url(#clipPath2)"/>
    </g>
    <g fill="rgb(247,182,210)" text-rendering="geometricPrecision" shape-rendering="geometricPrecision" transform="matrix(1,0,0,1,-211,-231)" stroke="rgb(247,182,210)">
      <rect x="347" width="30" height="30" y="276" clip-path="url(#clipPath2)" stroke="none"/>
    </g>
    <g text-rendering="geometricPrecision" stroke-miterlimit="1.45" shape-rendering="geometricPrecision" transform="matrix(1,0,0,1,-211,-231)" stroke-linecap="butt">
      <rect fill="none" x="347" width="30" height="30" y="276" clip-path="url(#clipPath2)"/>
    </g>
    <g fill="rgb(247,182,210)" text-rendering="geometricPrecision" shape-rendering="geometricPrecision" transform="matrix(1,0,0,1,-211,-231)" stroke="rgb(247,182,210)">
      <rect x="377" width="30" height="30" y="276" clip-path="url(#clipPath2)" stroke="none"/>
    </g>
    <g text-rendering="geometricPrecision" stroke-miterlimit="1.45" shape-rendering="geometricPrecision" transform="matrix(1,0,0,1,-211,-231)" stroke-linecap="butt">
      <rect fill="none" x="377" width="30" height="30" y="276" clip-path="url(#clipPath2)"/>
    </g>
    <g fill="rgb(219,219,141)" text-rendering="geometricPrecision" shape-rendering="geometricPrecision" transform="matrix(1,0,0,1,-211,-231)" stroke="rgb(219,219,141)">
      <rect x="227" width="30" height="30" y="306" clip-path="url(#clipPath2)" stroke="none"/>
    </g>
    <g text-rendering="geometricPrecision" stroke-miterlimit="1.45" shape-rendering="geometricPrecision" transform="matrix(1,0,0,1,-211,-231)" stroke-linecap="butt">
      <rect fill="none" x="227" width="30" height="30" y="306" clip-path="url(#clipPath2)"/>
    </g>
    <g fill="rgb(219,219,141)" text-rendering="geometricPrecision" shape-rendering="geometricPrecision" transform="matrix(1,0,0,1,-211,-231)" stroke="rgb(219,219,141)">
      <rect x="257" width="30" height="30" y="306" clip-path="url(#clipPath2)" stroke="none"/>
    </g>
    <g text-rendering="geometricPrecision" stroke-miterlimit="1.45" shape-rendering="geometricPrecision" transform="matrix(1,0,0,1,-211,-231)" stroke-linecap="butt">
      <rect fill="none" x="257" width="30" height="30" y="306" clip-path="url(#clipPath2)"/>
    </g>
    <g fill="rgb(219,219,141)" text-rendering="geometricPrecision" shape-rendering="geometricPrecision" transform="matrix(1,0,0,1,-211,-231)" stroke="rgb(219,219,141)">
      <rect x="227" width="30" height="30" y="336" clip-path="url(#clipPath2)" stroke="none"/>
    </g>
    <g text-rendering="geometricPrecision" stroke-miterlimit="1.45" shape-rendering="geometricPrecision" transform="matrix(1,0,0,1,-211,-231)" stroke-linecap="butt">
      <rect fill="none" x="227" width="30" height="30" y="336" clip-path="url(#clipPath2)"/>
    </g>
    <g fill="rgb(219,219,141)" text-rendering="geometricPrecision" shape-rendering="geometricPrecision" transform="matrix(1,0,0,1,-211,-231)" stroke="rgb(219,219,141)">
      <rect x="257" width="30" height="30" y="336" clip-path="url(#clipPath2)" stroke="none"/>
    </g>
    <g text-rendering="geometricPrecision" stroke-miterlimit="1.45" shape-rendering="geometricPrecision" transform="matrix(1,0,0,1,-211,-231)" stroke-linecap="butt">
      <rect fill="none" x="257" width="30" height="30" y="336" clip-path="url(#clipPath2)"/>
    </g>
    <g transform="matrix(1,0,0,1,-211,-231)" fill-opacity="0.4471" fill="rgb(50,34,136)" text-rendering="geometricPrecision" shape-rendering="geometricPrecision" stroke="rgb(50,34,136)" stroke-opacity="0.4471">
      <rect x="287" width="30" height="30" y="306" clip-path="url(#clipPath2)" stroke="none"/>
    </g>
    <g text-rendering="geometricPrecision" stroke-miterlimit="1.45" shape-rendering="geometricPrecision" transform="matrix(1,0,0,1,-211,-231)" stroke-linecap="butt">
      <rect fill="none" x="287" width="30" height="30" y="306" clip-path="url(#clipPath2)"/>
    </g>
    <g transform="matrix(1,0,0,1,-211,-231)" fill-opacity="0.4471" fill="rgb(50,34,136)" text-rendering="geometricPrecision" shape-rendering="geometricPrecision" stroke="rgb(50,34,136)" stroke-opacity="0.4471">
      <rect x="317" width="30" height="30" y="306" clip-path="url(#clipPath2)" stroke="none"/>
    </g>
    <g text-rendering="geometricPrecision" stroke-miterlimit="1.45" shape-rendering="geometricPrecision" transform="matrix(1,0,0,1,-211,-231)" stroke-linecap="butt">
      <rect fill="none" x="317" width="30" height="30" y="306" clip-path="url(#clipPath2)"/>
    </g>
    <g transform="matrix(1,0,0,1,-211,-231)" fill-opacity="0.4471" fill="rgb(50,34,136)" text-rendering="geometricPrecision" shape-rendering="geometricPrecision" stroke="rgb(50,34,136)" stroke-opacity="0.4471">
      <rect x="287" width="30" height="30" y="336" clip-path="url(#clipPath2)" stroke="none"/>
    </g>
    <g text-rendering="geometricPrecision" stroke-miterlimit="1.45" shape-rendering="geometricPrecision" transform="matrix(1,0,0,1,-211,-231)" stroke-linecap="butt">
      <rect fill="none" x="287" width="30" height="30" y="336" clip-path="url(#clipPath2)"/>
    </g>
    <g transform="matrix(1,0,0,1,-211,-231)" fill-opacity="0.4471" fill="rgb(50,34,136)" text-rendering="geometricPrecision" shape-rendering="geometricPrecision" stroke="rgb(50,34,136)" stroke-opacity="0.4471">
      <rect x="317" width="30" height="30" y="336" clip-path="url(#clipPath2)" stroke="none"/>
    </g>
    <g text-rendering="geometricPrecision" stroke-miterlimit="1.45" shape-rendering="geometricPrecision" transform="matrix(1,0,0,1,-211,-231)" stroke-linecap="butt">
      <rect fill="none" x="317" width="30" height="30" y="336" clip-path="url(#clipPath2)"/>
    </g>
    <g fill="rgb(199,199,199)" text-rendering="geometricPrecision" shape-rendering="geometricPrecision" transform="matrix(1,0,0,1,-211,-231)" stroke="rgb(199,199,199)">
      <rect x="347" width="30" height="30" y="306" clip-path="url(#clipPath2)" stroke="none"/>
    </g>
    <g text-rendering="geometricPrecision" stroke-miterlimit="1.45" shape-rendering="geometricPrecision" transform="matrix(1,0,0,1,-211,-231)" stroke-linecap="butt">
      <rect fill="none" x="347" width="30" height="30" y="306" clip-path="url(#clipPath2)"/>
    </g>
    <g fill="rgb(199,199,199)" text-rendering="geometricPrecision" shape-rendering="geometricPrecision" transform="matrix(1,0,0,1,-211,-231)" stroke="rgb(199,199,199)">
      <rect x="377" width="30" height="30" y="306" clip-path="url(#clipPath2)" stroke="none"/>
    </g>
    <g text-rendering="geometricPrecision" stroke-miterlimit="1.45" shape-rendering="geometricPrecision" transform="matrix(1,0,0,1,-211,-231)" stroke-linecap="butt">
      <rect fill="none" x="377" width="30" height="30" y="306" clip-path="url(#clipPath2)"/>
    </g>
    <g fill="rgb(199,199,199)" text-rendering="geometricPrecision" shape-rendering="geometricPrecision" transform="matrix(1,0,0,1,-211,-231)" stroke="rgb(199,199,199)">
      <rect x="347" width="30" height="30" y="336" clip-path="url(#clipPath2)" stroke="none"/>
    </g>
    <g text-rendering="geometricPrecision" stroke-miterlimit="1.45" shape-rendering="geometricPrecision" transform="matrix(1,0,0,1,-211,-231)" stroke-linecap="butt">
      <rect fill="none" x="347" width="30" height="30" y="336" clip-path="url(#clipPath2)"/>
    </g>
    <g fill="rgb(199,199,199)" text-rendering="geometricPrecision" shape-rendering="geometricPrecision" transform="matrix(1,0,0,1,-211,-231)" stroke="rgb(199,199,199)">
      <rect x="377" width="30" height="30" y="336" clip-path="url(#clipPath2)" stroke="none"/>
    </g>
    <g text-rendering="geometricPrecision" stroke-miterlimit="1.45" shape-rendering="geometricPrecision" transform="matrix(1,0,0,1,-211,-231)" stroke-linecap="butt">
      <rect fill="none" x="377" width="30" height="30" y="336" clip-path="url(#clipPath2)"/>
    </g>
    <g fill="rgb(196,156,148)" text-rendering="geometricPrecision" shape-rendering="geometricPrecision" transform="matrix(1,0,0,1,-211,-231)" stroke="rgb(196,156,148)">
      <rect x="476.8354" width="30" height="30" y="276" clip-path="url(#clipPath2)" stroke="none"/>
    </g>
    <g text-rendering="geometricPrecision" stroke-miterlimit="1.45" shape-rendering="geometricPrecision" transform="matrix(1,0,0,1,-211,-231)" stroke-linecap="butt">
      <rect fill="none" x="476.8354" width="30" height="30" y="276" clip-path="url(#clipPath2)"/>
    </g>
    <g fill="rgb(219,219,141)" text-rendering="geometricPrecision" shape-rendering="geometricPrecision" transform="matrix(1,0,0,1,-211,-231)" stroke="rgb(219,219,141)">
      <rect x="476.8354" width="30" height="30" y="306" clip-path="url(#clipPath2)" stroke="none"/>
    </g>
    <g text-rendering="geometricPrecision" stroke-miterlimit="1.45" shape-rendering="geometricPrecision" transform="matrix(1,0,0,1,-211,-231)" stroke-linecap="butt">
      <rect fill="none" x="476.8354" width="30" height="30" y="306" clip-path="url(#clipPath2)"/>
    </g>
    <g transform="matrix(1,0,0,1,-211,-231)" fill-opacity="0.2471" fill="rgb(158,218,229)" text-rendering="geometricPrecision" shape-rendering="geometricPrecision" stroke="rgb(158,218,229)" stroke-opacity="0.2471">
      <rect x="506.8354" width="30" height="30" y="276" clip-path="url(#clipPath2)" stroke="none"/>
    </g>
    <g text-rendering="geometricPrecision" stroke-miterlimit="1.45" shape-rendering="geometricPrecision" transform="matrix(1,0,0,1,-211,-231)" stroke-linecap="butt">
      <rect fill="none" x="506.8354" width="30" height="30" y="276" clip-path="url(#clipPath2)"/>
    </g>
    <g fill="rgb(255,153,204)" text-rendering="geometricPrecision" shape-rendering="geometricPrecision" transform="matrix(1,0,0,1,-211,-231)" stroke="rgb(255,153,204)">
      <rect x="536.8354" width="30" height="30" y="276" clip-path="url(#clipPath2)" stroke="none"/>
    </g>
    <g text-rendering="geometricPrecision" stroke-miterlimit="1.45" shape-rendering="geometricPrecision" transform="matrix(1,0,0,1,-211,-231)" stroke-linecap="butt">
      <rect fill="none" x="536.8354" width="30" height="30" y="276" clip-path="url(#clipPath2)"/>
    </g>
    <g transform="matrix(1,0,0,1,-211,-231)" fill-opacity="0.4471" fill="rgb(50,34,136)" text-rendering="geometricPrecision" shape-rendering="geometricPrecision" stroke="rgb(50,34,136)" stroke-opacity="0.4471">
      <rect x="506.8354" width="30" height="30" y="306" clip-path="url(#clipPath2)" stroke="none"/>
    </g>
    <g text-rendering="geometricPrecision" stroke-miterlimit="1.45" shape-rendering="geometricPrecision" transform="matrix(1,0,0,1,-211,-231)" stroke-linecap="butt">
      <rect fill="none" x="506.8354" width="30" height="30" y="306" clip-path="url(#clipPath2)"/>
    </g>
    <g fill="rgb(199,199,199)" text-rendering="geometricPrecision" shape-rendering="geometricPrecision" transform="matrix(1,0,0,1,-211,-231)" stroke="rgb(199,199,199)">
      <rect x="536.8354" width="30" height="30" y="306" clip-path="url(#clipPath2)" stroke="none"/>
    </g>
    <g text-rendering="geometricPrecision" stroke-miterlimit="1.45" shape-rendering="geometricPrecision" transform="matrix(1,0,0,1,-211,-231)" stroke-linecap="butt">
      <rect fill="none" x="536.8354" width="30" height="30" y="306" clip-path="url(#clipPath2)"/>
    </g>
    <g transform="matrix(1,0,0,1,-211,-231)" fill-opacity="0.2471" fill="rgb(158,218,229)" text-rendering="geometricPrecision" shape-rendering="geometricPrecision" stroke="rgb(158,218,229)" stroke-opacity="0.2471">
      <rect x="317" width="30" height="30" y="246" clip-path="url(#clipPath2)" stroke="none"/>
    </g>
    <g text-rendering="geometricPrecision" stroke-miterlimit="1.45" shape-rendering="geometricPrecision" transform="matrix(1,0,0,1,-211,-231)" stroke-linecap="butt">
      <rect fill="none" x="317" width="30" height="30" y="246" clip-path="url(#clipPath2)"/>
      <path fill="none" d="M407.0107 307.4143 L468.828 307.4143" clip-path="url(#clipPath2)"/>
      <path d="M476.828 307.4143 L464.828 302.4143 L467.828 307.4143 L464.828 312.4143 Z" clip-path="url(#clipPath2)" stroke="none"/>
    </g>
  </g>
</svg>
