<?xml version="1.0" encoding="UTF-8"?><svg xmlns="http://www.w3.org/2000/svg" xmlns:xlink="http://www.w3.org/1999/xlink" fill-opacity="1" color-rendering="auto" color-interpolation="auto" text-rendering="auto" stroke="black" stroke-linecap="square" width="590" stroke-miterlimit="10" shape-rendering="auto" stroke-opacity="1" fill="black" stroke-dasharray="none" font-weight="normal" stroke-width="1" height="275" font-family="'Dialog'" font-style="normal" stroke-linejoin="miter" font-size="12px" stroke-dashoffset="0" image-rendering="auto">
  <!--Generated by ySVG 2.5-->
  <defs id="genericDefs"/>
  <g>
    <defs id="defs1">
      <clipPath clipPathUnits="userSpaceOnUse" id="clipPath1">
        <path d="M0 0 L590 0 L590 275 L0 275 L0 0 Z"/>
      </clipPath>
      <clipPath clipPathUnits="userSpaceOnUse" id="clipPath2">
        <path d="M-199 -178 L391 -178 L391 97 L-199 97 L-199 -178 Z"/>
      </clipPath>
    </defs>
    <g fill="white" text-rendering="geometricPrecision" shape-rendering="geometricPrecision" transform="translate(199,178)" stroke="white">
      <rect x="-199" width="590" height="275" y="-178" clip-path="url(#clipPath2)" stroke="none"/>
    </g>
    <g fill="rgb(224,152,172)" text-rendering="geometricPrecision" shape-rendering="geometricPrecision" transform="matrix(1,0,0,1,199,178)" stroke="rgb(224,152,172)">
      <circle r="15" clip-path="url(#clipPath2)" cx="239.7051" cy="66.3455" stroke="none"/>
    </g>
    <g font-size="16px" stroke-linecap="butt" transform="matrix(1,0,0,1,199,178)" text-rendering="geometricPrecision" font-family="'Roboto'" shape-rendering="geometricPrecision" stroke-miterlimit="1.45">
      <text x="230.7207" xml:space="preserve" y="71.8143" clip-path="url(#clipPath2)" stroke="none">37</text>
    </g>
    <g fill="rgb(224,152,172)" text-rendering="geometricPrecision" shape-rendering="geometricPrecision" transform="matrix(1,0,0,1,199,178)" stroke="rgb(224,152,172)">
      <circle r="15" clip-path="url(#clipPath2)" cx="189.7981" cy="16.4385" stroke="none"/>
    </g>
    <g font-size="16px" stroke-linecap="butt" transform="matrix(1,0,0,1,199,178)" text-rendering="geometricPrecision" font-family="'Roboto'" shape-rendering="geometricPrecision" stroke-miterlimit="1.45">
      <text x="180.8137" xml:space="preserve" y="21.9072" clip-path="url(#clipPath2)" stroke="none">58</text>
    </g>
    <g fill="rgb(224,152,172)" text-rendering="geometricPrecision" shape-rendering="geometricPrecision" transform="matrix(1,0,0,1,199,178)" stroke="rgb(224,152,172)">
      <circle r="15" clip-path="url(#clipPath2)" cx="360.1913" cy="16.4385" stroke="none"/>
    </g>
    <g font-size="16px" stroke-linecap="butt" transform="matrix(1,0,0,1,199,178)" text-rendering="geometricPrecision" font-family="'Roboto'" shape-rendering="geometricPrecision" stroke-miterlimit="1.45">
      <text x="355.6992" xml:space="preserve" y="21.9072" clip-path="url(#clipPath2)" stroke="none">4</text>
    </g>
    <g fill="rgb(224,152,172)" text-rendering="geometricPrecision" shape-rendering="geometricPrecision" transform="matrix(1,0,0,1,199,178)" stroke="rgb(224,152,172)">
      <circle r="15" clip-path="url(#clipPath2)" cx="305.2843" cy="-104.0477" stroke="none"/>
    </g>
    <g font-size="16px" stroke-linecap="butt" transform="matrix(1,0,0,1,199,178)" text-rendering="geometricPrecision" font-family="'Roboto'" shape-rendering="geometricPrecision" stroke-miterlimit="1.45">
      <text x="296.2999" xml:space="preserve" y="-98.579" clip-path="url(#clipPath2)" stroke="none">42</text>
    </g>
    <g fill="rgb(224,152,172)" text-rendering="geometricPrecision" shape-rendering="geometricPrecision" transform="matrix(1,0,0,1,199,178)" stroke="rgb(224,152,172)">
      <circle r="15" clip-path="url(#clipPath2)" cx="189.7981" cy="-54.1407" stroke="none"/>
    </g>
    <g font-size="16px" stroke-linecap="butt" transform="matrix(1,0,0,1,199,178)" text-rendering="geometricPrecision" font-family="'Roboto'" shape-rendering="geometricPrecision" stroke-miterlimit="1.45">
      <text x="180.8137" xml:space="preserve" y="-48.672" clip-path="url(#clipPath2)" stroke="none">89</text>
    </g>
    <g fill="rgb(224,152,172)" text-rendering="geometricPrecision" shape-rendering="geometricPrecision" transform="matrix(1,0,0,1,199,178)" stroke="rgb(224,152,172)">
      <circle r="15" clip-path="url(#clipPath2)" cx="239.7051" cy="-104.0477" stroke="none"/>
    </g>
    <g font-size="16px" stroke-linecap="butt" transform="matrix(1,0,0,1,199,178)" text-rendering="geometricPrecision" font-family="'Roboto'" shape-rendering="geometricPrecision" stroke-miterlimit="1.45">
      <text x="226.2285" xml:space="preserve" y="-98.579" clip-path="url(#clipPath2)" stroke="none">145</text>
    </g>
    <g fill="rgb(224,152,172)" text-rendering="geometricPrecision" shape-rendering="geometricPrecision" transform="matrix(1,0,0,1,199,178)" stroke="rgb(224,152,172)">
      <circle r="15" clip-path="url(#clipPath2)" cx="360.1913" cy="-54.1407" stroke="none"/>
    </g>
    <g font-size="16px" stroke-linecap="butt" transform="matrix(1,0,0,1,199,178)" text-rendering="geometricPrecision" font-family="'Roboto'" shape-rendering="geometricPrecision" stroke-miterlimit="1.45">
      <text x="351.207" xml:space="preserve" y="-48.672" clip-path="url(#clipPath2)" stroke="none">20</text>
    </g>
    <g fill="rgb(224,152,172)" text-rendering="geometricPrecision" shape-rendering="geometricPrecision" transform="matrix(1,0,0,1,199,178)" stroke="rgb(224,152,172)">
      <circle r="15" clip-path="url(#clipPath2)" cx="-96.0697" cy="-54.1407" stroke="none"/>
    </g>
    <g font-size="16px" stroke-linecap="butt" transform="matrix(1,0,0,1,199,178)" text-rendering="geometricPrecision" font-family="'Roboto'" shape-rendering="geometricPrecision" stroke-miterlimit="1.45">
      <text x="-105.054" xml:space="preserve" y="-48.672" clip-path="url(#clipPath2)" stroke="none">34</text>
    </g>
    <g fill="rgb(224,152,172)" text-rendering="geometricPrecision" shape-rendering="geometricPrecision" transform="matrix(1,0,0,1,199,178)" stroke="rgb(224,152,172)">
      <circle r="15" clip-path="url(#clipPath2)" cx="-167.5366" cy="-54.1407" stroke="none"/>
    </g>
    <g font-size="16px" stroke-linecap="butt" transform="matrix(1,0,0,1,199,178)" text-rendering="geometricPrecision" font-family="'Roboto'" shape-rendering="geometricPrecision" stroke-miterlimit="1.45">
      <text x="-176.521" xml:space="preserve" y="-48.672" clip-path="url(#clipPath2)" stroke="none">53</text>
      <text x="-181.3061" xml:space="preserve" y="-141.6398" clip-path="url(#clipPath2)" font-weight="bold" stroke="none">164</text>
    </g>
    <g fill="rgb(224,152,172)" text-rendering="geometricPrecision" shape-rendering="geometricPrecision" transform="matrix(1,0,0,1,199,178)" stroke="rgb(224,152,172)">
      <circle r="15" clip-path="url(#clipPath2)" cx="-24.6027" cy="-54.1407" stroke="none"/>
    </g>
    <g font-size="16px" stroke-linecap="butt" transform="matrix(1,0,0,1,199,178)" text-rendering="geometricPrecision" font-family="'Roboto'" shape-rendering="geometricPrecision" stroke-miterlimit="1.45">
      <text x="-33.5871" xml:space="preserve" y="-48.672" clip-path="url(#clipPath2)" stroke="none">25</text>
    </g>
    <g fill="rgb(224,152,172)" text-rendering="geometricPrecision" shape-rendering="geometricPrecision" transform="matrix(1,0,0,1,199,178)" stroke="rgb(224,152,172)">
      <circle r="15" clip-path="url(#clipPath2)" cx="46.8642" cy="-54.1407" stroke="none"/>
    </g>
    <g font-size="16px" stroke-linecap="butt" transform="matrix(1,0,0,1,199,178)" text-rendering="geometricPrecision" font-family="'Roboto'" shape-rendering="geometricPrecision" stroke-miterlimit="1.45">
      <text x="37.8798" xml:space="preserve" y="-48.672" clip-path="url(#clipPath2)" stroke="none">29</text>
    </g>
    <g fill="rgb(224,152,172)" text-rendering="geometricPrecision" shape-rendering="geometricPrecision" transform="matrix(1,0,0,1,199,178)" stroke="rgb(224,152,172)">
      <circle r="15" clip-path="url(#clipPath2)" cx="118.3311" cy="-54.1407" stroke="none"/>
    </g>
    <g font-size="16px" stroke-linecap="butt" transform="matrix(1,0,0,1,199,178)" text-rendering="geometricPrecision" font-family="'Roboto'" shape-rendering="geometricPrecision" stroke-miterlimit="1.45">
      <text x="109.3468" xml:space="preserve" y="-48.672" clip-path="url(#clipPath2)" stroke="none">85</text>
    </g>
    <g fill="rgb(224,152,172)" text-rendering="geometricPrecision" shape-rendering="geometricPrecision" transform="matrix(1,0,0,1,199,178)" stroke="rgb(224,152,172)">
      <circle r="15" clip-path="url(#clipPath2)" cx="305.2843" cy="66.3455" stroke="none"/>
    </g>
    <g font-size="16px" stroke-linecap="butt" transform="matrix(1,0,0,1,199,178)" text-rendering="geometricPrecision" font-family="'Roboto'" shape-rendering="geometricPrecision" stroke-miterlimit="1.45">
      <text x="296.2999" xml:space="preserve" y="71.8143" clip-path="url(#clipPath2)" stroke="none">16</text>
      <path fill="none" d="M229.0985 55.7389 L206.0615 32.702" clip-path="url(#clipPath2)"/>
      <path d="M200.4047 27.0451 L205.3544 39.0659 L206.7686 33.4091 L212.4255 31.9948 Z" stroke="none" clip-path="url(#clipPath2)"/>
      <path fill="none" d="M189.7981 1.4385 L189.7981 -31.1407" clip-path="url(#clipPath2)"/>
      <path d="M189.7981 -39.1407 L184.7981 -27.1407 L189.7981 -30.1407 L194.7981 -27.1407 Z" stroke="none" clip-path="url(#clipPath2)"/>
      <path fill="none" d="M200.4047 -64.7473 L223.4417 -87.7843" clip-path="url(#clipPath2)"/>
      <path d="M229.0985 -93.4411 L217.0777 -88.4914 L222.7346 -87.0772 L224.1488 -81.4203 Z" stroke="none" clip-path="url(#clipPath2)"/>
      <path fill="none" d="M254.7051 -104.0477 L282.2843 -104.0477" clip-path="url(#clipPath2)"/>
      <path d="M290.2843 -104.0477 L278.2843 -109.0477 L281.2843 -104.0477 L278.2843 -99.0477 Z" stroke="none" clip-path="url(#clipPath2)"/>
      <path fill="none" d="M316.3843 -93.9586 L343.1714 -69.6107" clip-path="url(#clipPath2)"/>
      <path d="M349.0914 -64.2299 L343.5745 -76.0012 L342.4314 -70.2834 L336.8484 -68.6012 Z" stroke="none" clip-path="url(#clipPath2)"/>
      <path fill="none" d="M360.1913 -39.1407 L360.1913 -6.5615" clip-path="url(#clipPath2)"/>
      <path d="M360.1913 1.4385 L365.1913 -10.5615 L360.1913 -7.5615 L355.1913 -10.5615 Z" stroke="none" clip-path="url(#clipPath2)"/>
      <path fill="none" d="M-152.5366 -54.1407 L-119.0697 -54.1407" clip-path="url(#clipPath2)"/>
      <path d="M-111.0697 -54.1407 L-123.0697 -59.1407 L-120.0697 -54.1407 L-123.0697 -49.1407 Z" stroke="none" clip-path="url(#clipPath2)"/>
      <path fill="none" d="M-167.5366 -132.1086 L-167.5366 -77.1407" clip-path="url(#clipPath2)"/>
      <path d="M-167.5366 -69.1407 L-162.5366 -81.1407 L-167.5366 -78.1407 L-172.5366 -81.1407 Z" stroke="none" clip-path="url(#clipPath2)"/>
      <path fill="none" d="M-81.0697 -54.1407 L-47.6027 -54.1407" clip-path="url(#clipPath2)"/>
      <path d="M-39.6027 -54.1407 L-51.6027 -59.1407 L-48.6027 -54.1407 L-51.6027 -49.1407 Z" stroke="none" clip-path="url(#clipPath2)"/>
      <path fill="none" d="M-9.6027 -54.1407 L23.8642 -54.1407" clip-path="url(#clipPath2)"/>
      <path d="M31.8642 -54.1407 L19.8642 -59.1407 L22.8642 -54.1407 L19.8642 -49.1407 Z" stroke="none" clip-path="url(#clipPath2)"/>
      <path fill="none" d="M61.8642 -54.1407 L95.3311 -54.1407" clip-path="url(#clipPath2)"/>
      <path d="M103.3311 -54.1407 L91.3311 -59.1407 L94.3311 -54.1407 L91.3311 -49.1407 Z" stroke="none" clip-path="url(#clipPath2)"/>
      <path fill="none" d="M133.3311 -54.1407 L166.7981 -54.1407" clip-path="url(#clipPath2)"/>
      <path d="M174.7981 -54.1407 L162.7981 -59.1407 L165.7981 -54.1407 L162.7981 -49.1407 Z" stroke="none" clip-path="url(#clipPath2)"/>
      <path fill="none" d="M349.0914 26.5277 L322.3042 50.8755" clip-path="url(#clipPath2)"/>
      <path d="M316.3843 56.2564 L328.6273 51.885 L323.0443 50.2029 L321.9012 44.4851 Z" stroke="none" clip-path="url(#clipPath2)"/>
      <path fill="none" d="M290.2843 66.3455 L262.7051 66.3455" clip-path="url(#clipPath2)"/>
      <path d="M254.7051 66.3455 L266.7051 71.3455 L263.7051 66.3455 L266.7051 61.3455 Z" stroke="none" clip-path="url(#clipPath2)"/>
    </g>
  </g>
</svg>
