<?xml version="1.0" encoding="UTF-8"?><svg xmlns="http://www.w3.org/2000/svg" xmlns:xlink="http://www.w3.org/1999/xlink" fill-opacity="1" color-rendering="auto" color-interpolation="auto" text-rendering="auto" stroke="black" stroke-linecap="square" width="486" stroke-miterlimit="10" shape-rendering="auto" stroke-opacity="1" fill="black" stroke-dasharray="none" font-weight="normal" stroke-width="1" height="119" font-family="'Dialog'" font-style="normal" stroke-linejoin="miter" font-size="12px" stroke-dashoffset="0" image-rendering="auto">
  <!--Generated by ySVG 2.5-->
  <defs id="genericDefs"/>
  <g>
    <defs id="defs1">
      <linearGradient x1="-20.5928" gradientUnits="userSpaceOnUse" x2="0.5663" y1="306.768" y2="307.7174" id="linearGradient1" spreadMethod="pad">
        <stop stop-opacity="0.8627" stop-color="rgb(255,255,255)" offset="0%"/>
        <stop stop-opacity="0.1255" stop-color="rgb(255,255,255)" offset="100%"/>
      </linearGradient>
      <linearGradient x1="-95.8295" gradientUnits="userSpaceOnUse" x2="-74.0935" y1="311.2335" y2="332.9695" id="linearGradient2" spreadMethod="reflect">
        <stop stop-opacity="1" stop-color="rgb(247,182,210)" offset="0%"/>
        <stop stop-opacity="1" stop-color="rgb(247,182,210)" offset="100%"/>
      </linearGradient>
      <linearGradient x1="-95.8295" gradientUnits="userSpaceOnUse" x2="-74.0935" y1="337.8813" y2="359.6172" id="linearGradient3" spreadMethod="reflect">
        <stop stop-opacity="1" stop-color="rgb(158,218,229)" offset="0%"/>
        <stop stop-opacity="1" stop-color="rgb(158,218,229)" offset="100%"/>
      </linearGradient>
      <linearGradient x1="-95.8295" gradientUnits="userSpaceOnUse" x2="-74.0935" y1="364.529" y2="386.265" id="linearGradient4" spreadMethod="reflect">
        <stop stop-opacity="1" stop-color="rgb(219,219,141)" offset="0%"/>
        <stop stop-opacity="1" stop-color="rgb(219,219,141)" offset="100%"/>
      </linearGradient>
      <linearGradient x1="-14.9608" gradientUnits="userSpaceOnUse" x2="6.7752" y1="311.2335" y2="332.9695" id="linearGradient5" spreadMethod="reflect">
        <stop stop-opacity="1" stop-color="rgb(247,182,210)" offset="0%"/>
        <stop stop-opacity="1" stop-color="rgb(247,182,210)" offset="100%"/>
      </linearGradient>
      <linearGradient x1="-15.2825" gradientUnits="userSpaceOnUse" x2="7.0968" y1="364.529" y2="386.265" id="linearGradient6" spreadMethod="reflect">
        <stop stop-opacity="1" stop-color="rgb(219,219,141)" offset="0%"/>
        <stop stop-opacity="1" stop-color="rgb(219,219,141)" offset="100%"/>
      </linearGradient>
      <linearGradient x1="-14.9608" gradientUnits="userSpaceOnUse" x2="6.7752" y1="337.8813" y2="359.6172" id="linearGradient7" spreadMethod="reflect">
        <stop stop-opacity="1" stop-color="rgb(158,218,229)" offset="0%"/>
        <stop stop-opacity="1" stop-color="rgb(158,218,229)" offset="100%"/>
      </linearGradient>
      <linearGradient x1="60.2758" gradientUnits="userSpaceOnUse" x2="81.4349" y1="306.768" y2="307.7174" id="linearGradient8" spreadMethod="pad">
        <stop stop-opacity="0.8627" stop-color="rgb(255,255,255)" offset="0%"/>
        <stop stop-opacity="0.1255" stop-color="rgb(255,255,255)" offset="100%"/>
      </linearGradient>
      <linearGradient x1="65.9078" gradientUnits="userSpaceOnUse" x2="87.6438" y1="311.2335" y2="332.9695" id="linearGradient9" spreadMethod="reflect">
        <stop stop-opacity="1" stop-color="rgb(247,182,210)" offset="0%"/>
        <stop stop-opacity="1" stop-color="rgb(247,182,210)" offset="100%"/>
      </linearGradient>
      <linearGradient x1="65.5862" gradientUnits="userSpaceOnUse" x2="87.9654" y1="364.529" y2="386.265" id="linearGradient10" spreadMethod="reflect">
        <stop stop-opacity="1" stop-color="rgb(219,219,141)" offset="0%"/>
        <stop stop-opacity="1" stop-color="rgb(219,219,141)" offset="100%"/>
      </linearGradient>
      <linearGradient x1="65.9078" gradientUnits="userSpaceOnUse" x2="87.6438" y1="337.8813" y2="359.6172" id="linearGradient11" spreadMethod="reflect">
        <stop stop-opacity="1" stop-color="rgb(158,218,229)" offset="0%"/>
        <stop stop-opacity="1" stop-color="rgb(158,218,229)" offset="100%"/>
      </linearGradient>
      <linearGradient x1="146.4548" gradientUnits="userSpaceOnUse" x2="167.6139" y1="306.768" y2="307.7174" id="linearGradient12" spreadMethod="pad">
        <stop stop-opacity="0.8627" stop-color="rgb(255,255,255)" offset="0%"/>
        <stop stop-opacity="0.1255" stop-color="rgb(255,255,255)" offset="100%"/>
      </linearGradient>
      <linearGradient x1="152.0868" gradientUnits="userSpaceOnUse" x2="173.8228" y1="364.529" y2="386.265" id="linearGradient13" spreadMethod="reflect">
        <stop stop-opacity="1" stop-color="rgb(247,182,210)" offset="0%"/>
        <stop stop-opacity="1" stop-color="rgb(247,182,210)" offset="100%"/>
      </linearGradient>
      <linearGradient x1="151.7652" gradientUnits="userSpaceOnUse" x2="174.1445" y1="337.8813" y2="359.6172" id="linearGradient14" spreadMethod="reflect">
        <stop stop-opacity="1" stop-color="rgb(219,219,141)" offset="0%"/>
        <stop stop-opacity="1" stop-color="rgb(219,219,141)" offset="100%"/>
      </linearGradient>
      <linearGradient x1="152.0868" gradientUnits="userSpaceOnUse" x2="173.8228" y1="311.2335" y2="332.9695" id="linearGradient15" spreadMethod="reflect">
        <stop stop-opacity="1" stop-color="rgb(158,218,229)" offset="0%"/>
        <stop stop-opacity="1" stop-color="rgb(158,218,229)" offset="100%"/>
      </linearGradient>
      <linearGradient x1="232.6339" gradientUnits="userSpaceOnUse" x2="254.3699" y1="364.529" y2="386.265" id="linearGradient16" spreadMethod="reflect">
        <stop stop-opacity="1" stop-color="rgb(247,182,210)" offset="0%"/>
        <stop stop-opacity="1" stop-color="rgb(247,182,210)" offset="100%"/>
      </linearGradient>
      <linearGradient x1="232.6339" gradientUnits="userSpaceOnUse" x2="254.3699" y1="311.2335" y2="332.9695" id="linearGradient17" spreadMethod="reflect">
        <stop stop-opacity="1" stop-color="rgb(158,218,229)" offset="0%"/>
        <stop stop-opacity="1" stop-color="rgb(158,218,229)" offset="100%"/>
      </linearGradient>
      <linearGradient x1="232.6339" gradientUnits="userSpaceOnUse" x2="254.3699" y1="337.8813" y2="359.6172" id="linearGradient18" spreadMethod="reflect">
        <stop stop-opacity="1" stop-color="rgb(219,219,141)" offset="0%"/>
        <stop stop-opacity="1" stop-color="rgb(219,219,141)" offset="100%"/>
      </linearGradient>
      <clipPath clipPathUnits="userSpaceOnUse" id="clipPath1">
        <path d="M0 0 L486 0 L486 119 L0 119 L0 0 Z"/>
      </clipPath>
      <clipPath clipPathUnits="userSpaceOnUse" id="clipPath2">
        <path d="M-111 291 L375 291 L375 410 L-111 410 L-111 291 Z"/>
      </clipPath>
    </defs>
    <g fill="white" text-rendering="geometricPrecision" shape-rendering="geometricPrecision" transform="translate(111,-291)" stroke="white">
      <rect x="-111" width="486" height="119" y="291" clip-path="url(#clipPath2)" stroke="none"/>
    </g>
    <g stroke-linecap="butt" transform="matrix(1,0,0,1,111,-291)" fill="gray" text-rendering="geometricPrecision" shape-rendering="geometricPrecision" stroke="gray" stroke-miterlimit="1.45">
      <rect x="-20.5928" y="306.768" clip-path="url(#clipPath2)" fill="none" width="33" rx="5" ry="5" height="87.512"/>
    </g>
    <g fill="url(#linearGradient1)" text-rendering="geometricPrecision" shape-rendering="geometricPrecision" transform="matrix(1,0,0,1,111,-291)" stroke="url(#linearGradient1)">
      <path d="M-18.0928 316.768 Q-18.0928 309.268 -10.5928 309.268 L-9.1428 309.268 Q-1.6428 309.268 -1.6428 316.768 Q-1.6428 324.268 -2.3678 349.2728 Q-3.0928 374.2776 -10.5928 374.2776 Q-18.0928 374.2776 -18.0928 366.7776 Z" stroke="none" clip-path="url(#clipPath2)"/>
    </g>
    <g fill="url(#linearGradient2)" text-rendering="geometricPrecision" shape-rendering="geometricPrecision" transform="matrix(1,0,0,1,111,-291)" stroke="url(#linearGradient2)">
      <path d="M-74.0935 322.1015 C-74.0935 328.1037 -78.9592 332.9695 -84.9615 332.9695 C-90.9637 332.9695 -95.8295 328.1037 -95.8295 322.1015 C-95.8295 316.0992 -90.9637 311.2335 -84.9615 311.2335 C-78.9592 311.2335 -74.0935 316.0992 -74.0935 322.1015 Z" stroke="none" clip-path="url(#clipPath2)"/>
    </g>
    <g text-rendering="geometricPrecision" stroke-miterlimit="1.45" shape-rendering="geometricPrecision" transform="matrix(1,0,0,1,111,-291)" stroke-linecap="butt">
      <path fill="none" d="M-74.0935 322.1015 C-74.0935 328.1037 -78.9592 332.9695 -84.9615 332.9695 C-90.9637 332.9695 -95.8295 328.1037 -95.8295 322.1015 C-95.8295 316.0992 -90.9637 311.2335 -84.9615 311.2335 C-78.9592 311.2335 -74.0935 316.0992 -74.0935 322.1015 Z" clip-path="url(#clipPath2)"/>
    </g>
    <g fill="url(#linearGradient3)" text-rendering="geometricPrecision" shape-rendering="geometricPrecision" transform="matrix(1,0,0,1,111,-291)" stroke="url(#linearGradient3)">
      <path d="M-74.0935 348.7492 C-74.0935 354.7515 -78.9592 359.6172 -84.9615 359.6172 C-90.9637 359.6172 -95.8295 354.7515 -95.8295 348.7492 C-95.8295 342.747 -90.9637 337.8813 -84.9615 337.8813 C-78.9592 337.8813 -74.0935 342.747 -74.0935 348.7492 Z" stroke="none" clip-path="url(#clipPath2)"/>
    </g>
    <g text-rendering="geometricPrecision" stroke-miterlimit="1.45" shape-rendering="geometricPrecision" transform="matrix(1,0,0,1,111,-291)" stroke-linecap="butt">
      <path fill="none" d="M-74.0935 348.7492 C-74.0935 354.7515 -78.9592 359.6172 -84.9615 359.6172 C-90.9637 359.6172 -95.8295 354.7515 -95.8295 348.7492 C-95.8295 342.747 -90.9637 337.8813 -84.9615 337.8813 C-78.9592 337.8813 -74.0935 342.747 -74.0935 348.7492 Z" clip-path="url(#clipPath2)"/>
    </g>
    <g fill="url(#linearGradient4)" text-rendering="geometricPrecision" shape-rendering="geometricPrecision" transform="matrix(1,0,0,1,111,-291)" stroke="url(#linearGradient4)">
      <path d="M-74.0935 375.397 C-74.0935 381.3993 -78.9592 386.265 -84.9615 386.265 C-90.9637 386.265 -95.8295 381.3993 -95.8295 375.397 C-95.8295 369.3948 -90.9637 364.529 -84.9615 364.529 C-78.9592 364.529 -74.0935 369.3948 -74.0935 375.397 Z" stroke="none" clip-path="url(#clipPath2)"/>
    </g>
    <g text-rendering="geometricPrecision" stroke-miterlimit="1.45" shape-rendering="geometricPrecision" transform="matrix(1,0,0,1,111,-291)" stroke-linecap="butt">
      <path fill="none" d="M-74.0935 375.397 C-74.0935 381.3993 -78.9592 386.265 -84.9615 386.265 C-90.9637 386.265 -95.8295 381.3993 -95.8295 375.397 C-95.8295 369.3948 -90.9637 364.529 -84.9615 364.529 C-78.9592 364.529 -74.0935 369.3948 -74.0935 375.397 Z" clip-path="url(#clipPath2)"/>
    </g>
    <g fill="url(#linearGradient5)" text-rendering="geometricPrecision" shape-rendering="geometricPrecision" transform="matrix(1,0,0,1,111,-291)" stroke="url(#linearGradient5)">
      <path d="M6.7752 322.1015 C6.7752 328.1037 1.9094 332.9695 -4.0928 332.9695 C-10.0951 332.9695 -14.9608 328.1037 -14.9608 322.1015 C-14.9608 316.0992 -10.0951 311.2335 -4.0928 311.2335 C1.9094 311.2335 6.7752 316.0992 6.7752 322.1015 Z" stroke="none" clip-path="url(#clipPath2)"/>
    </g>
    <g text-rendering="geometricPrecision" stroke-miterlimit="1.45" shape-rendering="geometricPrecision" transform="matrix(1,0,0,1,111,-291)" stroke-linecap="butt">
      <path fill="none" d="M6.7752 322.1015 C6.7752 328.1037 1.9094 332.9695 -4.0928 332.9695 C-10.0951 332.9695 -14.9608 328.1037 -14.9608 322.1015 C-14.9608 316.0992 -10.0951 311.2335 -4.0928 311.2335 C1.9094 311.2335 6.7752 316.0992 6.7752 322.1015 Z" clip-path="url(#clipPath2)"/>
    </g>
    <g fill="url(#linearGradient6)" text-rendering="geometricPrecision" shape-rendering="geometricPrecision" transform="matrix(1,0,0,1,111,-291)" stroke="url(#linearGradient6)">
      <path d="M6.7752 375.397 C6.7752 381.3993 1.9094 386.265 -4.0928 386.265 C-10.0951 386.265 -14.9608 381.3993 -14.9608 375.397 C-14.9608 369.3948 -10.0951 364.529 -4.0928 364.529 C1.9094 364.529 6.7752 369.3948 6.7752 375.397 Z" stroke="none" clip-path="url(#clipPath2)"/>
    </g>
    <g text-rendering="geometricPrecision" stroke-miterlimit="1.45" shape-rendering="geometricPrecision" transform="matrix(1,0,0,1,111,-291)" stroke-linecap="butt">
      <path fill="none" d="M6.7752 375.397 C6.7752 381.3993 1.9094 386.265 -4.0928 386.265 C-10.0951 386.265 -14.9608 381.3993 -14.9608 375.397 C-14.9608 369.3948 -10.0951 364.529 -4.0928 364.529 C1.9094 364.529 6.7752 369.3948 6.7752 375.397 Z" clip-path="url(#clipPath2)"/>
    </g>
    <g fill="url(#linearGradient7)" text-rendering="geometricPrecision" shape-rendering="geometricPrecision" transform="matrix(1,0,0,1,111,-291)" stroke="url(#linearGradient7)">
      <path d="M6.7752 348.7492 C6.7752 354.7515 1.9094 359.6172 -4.0928 359.6172 C-10.0951 359.6172 -14.9608 354.7515 -14.9608 348.7492 C-14.9608 342.747 -10.0951 337.8813 -4.0928 337.8813 C1.9094 337.8813 6.7752 342.747 6.7752 348.7492 Z" stroke="none" clip-path="url(#clipPath2)"/>
    </g>
    <g text-rendering="geometricPrecision" stroke-miterlimit="1.45" shape-rendering="geometricPrecision" transform="matrix(1,0,0,1,111,-291)" stroke-linecap="butt">
      <path fill="none" d="M6.7752 348.7492 C6.7752 354.7515 1.9094 359.6172 -4.0928 359.6172 C-10.0951 359.6172 -14.9608 354.7515 -14.9608 348.7492 C-14.9608 342.747 -10.0951 337.8813 -4.0928 337.8813 C1.9094 337.8813 6.7752 342.747 6.7752 348.7492 Z" clip-path="url(#clipPath2)"/>
    </g>
    <g stroke-linecap="butt" transform="matrix(1,0,0,1,111,-291)" fill="gray" text-rendering="geometricPrecision" shape-rendering="geometricPrecision" stroke="gray" stroke-miterlimit="1.45">
      <rect x="60.2758" y="306.768" clip-path="url(#clipPath2)" fill="none" width="33" rx="5" ry="5" height="87.512"/>
    </g>
    <g fill="url(#linearGradient8)" text-rendering="geometricPrecision" shape-rendering="geometricPrecision" transform="matrix(1,0,0,1,111,-291)" stroke="url(#linearGradient8)">
      <path d="M62.7758 316.768 Q62.7758 309.268 70.2758 309.268 L71.7258 309.268 Q79.2258 309.268 79.2258 316.768 Q79.2258 324.268 78.5008 349.2728 Q77.7758 374.2776 70.2758 374.2776 Q62.7758 374.2776 62.7758 366.7776 Z" stroke="none" clip-path="url(#clipPath2)"/>
    </g>
    <g fill="url(#linearGradient9)" text-rendering="geometricPrecision" shape-rendering="geometricPrecision" transform="matrix(1,0,0,1,111,-291)" stroke="url(#linearGradient9)">
      <path d="M87.6438 322.1015 C87.6438 328.1037 82.778 332.9695 76.7758 332.9695 C70.7736 332.9695 65.9078 328.1037 65.9078 322.1015 C65.9078 316.0992 70.7736 311.2335 76.7758 311.2335 C82.778 311.2335 87.6438 316.0992 87.6438 322.1015 Z" stroke="none" clip-path="url(#clipPath2)"/>
    </g>
    <g text-rendering="geometricPrecision" stroke-miterlimit="1.45" shape-rendering="geometricPrecision" transform="matrix(1,0,0,1,111,-291)" stroke-linecap="butt">
      <path fill="none" d="M87.6438 322.1015 C87.6438 328.1037 82.778 332.9695 76.7758 332.9695 C70.7736 332.9695 65.9078 328.1037 65.9078 322.1015 C65.9078 316.0992 70.7736 311.2335 76.7758 311.2335 C82.778 311.2335 87.6438 316.0992 87.6438 322.1015 Z" clip-path="url(#clipPath2)"/>
    </g>
    <g fill="url(#linearGradient10)" text-rendering="geometricPrecision" shape-rendering="geometricPrecision" transform="matrix(1,0,0,1,111,-291)" stroke="url(#linearGradient10)">
      <path d="M87.6438 375.397 C87.6438 381.3993 82.778 386.265 76.7758 386.265 C70.7736 386.265 65.9078 381.3993 65.9078 375.397 C65.9078 369.3948 70.7736 364.529 76.7758 364.529 C82.778 364.529 87.6438 369.3948 87.6438 375.397 Z" stroke="none" clip-path="url(#clipPath2)"/>
    </g>
    <g text-rendering="geometricPrecision" stroke-miterlimit="1.45" shape-rendering="geometricPrecision" transform="matrix(1,0,0,1,111,-291)" stroke-linecap="butt">
      <path fill="none" d="M87.6438 375.397 C87.6438 381.3993 82.778 386.265 76.7758 386.265 C70.7736 386.265 65.9078 381.3993 65.9078 375.397 C65.9078 369.3948 70.7736 364.529 76.7758 364.529 C82.778 364.529 87.6438 369.3948 87.6438 375.397 Z" clip-path="url(#clipPath2)"/>
    </g>
    <g fill="url(#linearGradient11)" text-rendering="geometricPrecision" shape-rendering="geometricPrecision" transform="matrix(1,0,0,1,111,-291)" stroke="url(#linearGradient11)">
      <path d="M87.6438 348.7492 C87.6438 354.7515 82.778 359.6172 76.7758 359.6172 C70.7736 359.6172 65.9078 354.7515 65.9078 348.7492 C65.9078 342.747 70.7736 337.8813 76.7758 337.8813 C82.778 337.8813 87.6438 342.747 87.6438 348.7492 Z" stroke="none" clip-path="url(#clipPath2)"/>
    </g>
    <g text-rendering="geometricPrecision" stroke-miterlimit="1.45" shape-rendering="geometricPrecision" transform="matrix(1,0,0,1,111,-291)" stroke-linecap="butt">
      <path fill="none" d="M87.6438 348.7492 C87.6438 354.7515 82.778 359.6172 76.7758 359.6172 C70.7736 359.6172 65.9078 354.7515 65.9078 348.7492 C65.9078 342.747 70.7736 337.8813 76.7758 337.8813 C82.778 337.8813 87.6438 342.747 87.6438 348.7492 Z" clip-path="url(#clipPath2)"/>
    </g>
    <g stroke-linecap="butt" transform="matrix(1,0,0,1,111,-291)" fill="gray" text-rendering="geometricPrecision" shape-rendering="geometricPrecision" stroke="gray" stroke-miterlimit="1.45">
      <rect x="146.4548" y="306.768" clip-path="url(#clipPath2)" fill="none" width="33" rx="5" ry="5" height="87.512"/>
    </g>
    <g fill="url(#linearGradient12)" text-rendering="geometricPrecision" shape-rendering="geometricPrecision" transform="matrix(1,0,0,1,111,-291)" stroke="url(#linearGradient12)">
      <path d="M148.9548 316.768 Q148.9548 309.268 156.4548 309.268 L157.9048 309.268 Q165.4048 309.268 165.4048 316.768 Q165.4048 324.268 164.6798 349.2728 Q163.9548 374.2776 156.4548 374.2776 Q148.9548 374.2776 148.9548 366.7776 Z" stroke="none" clip-path="url(#clipPath2)"/>
    </g>
    <g fill="url(#linearGradient13)" text-rendering="geometricPrecision" shape-rendering="geometricPrecision" transform="matrix(1,0,0,1,111,-291)" stroke="url(#linearGradient13)">
      <path d="M173.8228 375.397 C173.8228 381.3993 168.9571 386.265 162.9548 386.265 C156.9526 386.265 152.0868 381.3993 152.0868 375.397 C152.0868 369.3948 156.9526 364.529 162.9548 364.529 C168.9571 364.529 173.8228 369.3948 173.8228 375.397 Z" stroke="none" clip-path="url(#clipPath2)"/>
    </g>
    <g text-rendering="geometricPrecision" stroke-miterlimit="1.45" shape-rendering="geometricPrecision" transform="matrix(1,0,0,1,111,-291)" stroke-linecap="butt">
      <path fill="none" d="M173.8228 375.397 C173.8228 381.3993 168.9571 386.265 162.9548 386.265 C156.9526 386.265 152.0868 381.3993 152.0868 375.397 C152.0868 369.3948 156.9526 364.529 162.9548 364.529 C168.9571 364.529 173.8228 369.3948 173.8228 375.397 Z" clip-path="url(#clipPath2)"/>
    </g>
    <g fill="url(#linearGradient14)" text-rendering="geometricPrecision" shape-rendering="geometricPrecision" transform="matrix(1,0,0,1,111,-291)" stroke="url(#linearGradient14)">
      <path d="M173.8228 348.7492 C173.8228 354.7515 168.9571 359.6172 162.9548 359.6172 C156.9526 359.6172 152.0868 354.7515 152.0868 348.7492 C152.0868 342.747 156.9526 337.8813 162.9548 337.8813 C168.9571 337.8813 173.8228 342.747 173.8228 348.7492 Z" stroke="none" clip-path="url(#clipPath2)"/>
    </g>
    <g text-rendering="geometricPrecision" stroke-miterlimit="1.45" shape-rendering="geometricPrecision" transform="matrix(1,0,0,1,111,-291)" stroke-linecap="butt">
      <path fill="none" d="M173.8228 348.7492 C173.8228 354.7515 168.9571 359.6172 162.9548 359.6172 C156.9526 359.6172 152.0868 354.7515 152.0868 348.7492 C152.0868 342.747 156.9526 337.8813 162.9548 337.8813 C168.9571 337.8813 173.8228 342.747 173.8228 348.7492 Z" clip-path="url(#clipPath2)"/>
    </g>
    <g fill="url(#linearGradient15)" text-rendering="geometricPrecision" shape-rendering="geometricPrecision" transform="matrix(1,0,0,1,111,-291)" stroke="url(#linearGradient15)">
      <path d="M173.8228 322.1015 C173.8228 328.1037 168.9571 332.9695 162.9548 332.9695 C156.9526 332.9695 152.0868 328.1037 152.0868 322.1015 C152.0868 316.0992 156.9526 311.2335 162.9548 311.2335 C168.9571 311.2335 173.8228 316.0992 173.8228 322.1015 Z" stroke="none" clip-path="url(#clipPath2)"/>
    </g>
    <g text-rendering="geometricPrecision" stroke-miterlimit="1.45" shape-rendering="geometricPrecision" transform="matrix(1,0,0,1,111,-291)" stroke-linecap="butt">
      <path fill="none" d="M173.8228 322.1015 C173.8228 328.1037 168.9571 332.9695 162.9548 332.9695 C156.9526 332.9695 152.0868 328.1037 152.0868 322.1015 C152.0868 316.0992 156.9526 311.2335 162.9548 311.2335 C168.9571 311.2335 173.8228 316.0992 173.8228 322.1015 Z" clip-path="url(#clipPath2)"/>
    </g>
    <g fill="url(#linearGradient16)" text-rendering="geometricPrecision" shape-rendering="geometricPrecision" transform="matrix(1,0,0,1,111,-291)" stroke="url(#linearGradient16)">
      <path d="M254.3699 375.397 C254.3699 381.3993 249.5041 386.265 243.5018 386.265 C237.4996 386.265 232.6339 381.3993 232.6339 375.397 C232.6339 369.3948 237.4996 364.529 243.5018 364.529 C249.5041 364.529 254.3699 369.3948 254.3699 375.397 Z" stroke="none" clip-path="url(#clipPath2)"/>
    </g>
    <g text-rendering="geometricPrecision" stroke-miterlimit="1.45" shape-rendering="geometricPrecision" transform="matrix(1,0,0,1,111,-291)" stroke-linecap="butt">
      <path fill="none" d="M254.3699 375.397 C254.3699 381.3993 249.5041 386.265 243.5018 386.265 C237.4996 386.265 232.6339 381.3993 232.6339 375.397 C232.6339 369.3948 237.4996 364.529 243.5018 364.529 C249.5041 364.529 254.3699 369.3948 254.3699 375.397 Z" clip-path="url(#clipPath2)"/>
    </g>
    <g fill="url(#linearGradient17)" text-rendering="geometricPrecision" shape-rendering="geometricPrecision" transform="matrix(1,0,0,1,111,-291)" stroke="url(#linearGradient17)">
      <path d="M254.3699 322.1015 C254.3699 328.1037 249.5041 332.9695 243.5018 332.9695 C237.4996 332.9695 232.6339 328.1037 232.6339 322.1015 C232.6339 316.0992 237.4996 311.2335 243.5018 311.2335 C249.5041 311.2335 254.3699 316.0992 254.3699 322.1015 Z" stroke="none" clip-path="url(#clipPath2)"/>
    </g>
    <g text-rendering="geometricPrecision" stroke-miterlimit="1.45" shape-rendering="geometricPrecision" transform="matrix(1,0,0,1,111,-291)" stroke-linecap="butt">
      <path fill="none" d="M254.3699 322.1015 C254.3699 328.1037 249.5041 332.9695 243.5018 332.9695 C237.4996 332.9695 232.6339 328.1037 232.6339 322.1015 C232.6339 316.0992 237.4996 311.2335 243.5018 311.2335 C249.5041 311.2335 254.3699 316.0992 254.3699 322.1015 Z" clip-path="url(#clipPath2)"/>
    </g>
    <g fill="url(#linearGradient18)" text-rendering="geometricPrecision" shape-rendering="geometricPrecision" transform="matrix(1,0,0,1,111,-291)" stroke="url(#linearGradient18)">
      <path d="M254.3699 348.7492 C254.3699 354.7515 249.5041 359.6172 243.5018 359.6172 C237.4996 359.6172 232.6339 354.7515 232.6339 348.7492 C232.6339 342.747 237.4996 337.8813 243.5018 337.8813 C249.5041 337.8813 254.3699 342.747 254.3699 348.7492 Z" stroke="none" clip-path="url(#clipPath2)"/>
    </g>
    <g text-rendering="geometricPrecision" stroke-miterlimit="1.45" shape-rendering="geometricPrecision" transform="matrix(1,0,0,1,111,-291)" stroke-linecap="butt">
      <path fill="none" d="M254.3699 348.7492 C254.3699 354.7515 249.5041 359.6172 243.5018 359.6172 C237.4996 359.6172 232.6339 354.7515 232.6339 348.7492 C232.6339 342.747 237.4996 337.8813 243.5018 337.8813 C249.5041 337.8813 254.3699 342.747 254.3699 348.7492 Z" clip-path="url(#clipPath2)"/>
    </g>
    <g text-rendering="geometricPrecision" stroke-miterlimit="1.45" shape-rendering="geometricPrecision" transform="matrix(1,0,0,1,111,-291)" stroke-linecap="butt">
      <path fill="none" d="M-74.1168 322.1015 L-28.6111 322.1015" clip-path="url(#clipPath2)"/>
    </g>
    <g text-rendering="geometricPrecision" stroke-miterlimit="1.45" shape-rendering="geometricPrecision" transform="matrix(1,0,0,1,111,-291)" stroke-linecap="butt">
      <path d="M-20.6111 322.1015 L-32.6111 317.1015 L-29.6111 322.1015 L-32.6111 327.1015 Z" stroke="none" clip-path="url(#clipPath2)"/>
      <path fill="none" d="M-74.1168 348.7492 L-28.6111 348.7492" clip-path="url(#clipPath2)"/>
      <path d="M-20.6111 348.7492 L-32.6111 343.7492 L-29.6111 348.7492 L-32.6111 353.7492 Z" clip-path="url(#clipPath2)" stroke="none"/>
      <path fill="none" d="M-74.119 375.397 L-28.5978 375.397" clip-path="url(#clipPath2)"/>
      <path d="M-20.5978 375.397 L-32.5978 370.397 L-29.5978 375.397 L-32.5978 380.397 Z" clip-path="url(#clipPath2)" stroke="none"/>
      <path fill="none" d="M12.3731 350.524 L52.2663 350.524" clip-path="url(#clipPath2)"/>
      <path d="M60.2663 350.524 L48.2663 345.524 L51.2663 350.524 L48.2663 355.524 Z" clip-path="url(#clipPath2)" stroke="none"/>
      <path fill="none" d="M84.4065 329.8457 L95.0752 340.6731 L105.0363 348.6469 L115.5382 355.7462 L126.5811 361.9708 L138.1648 367.3208 L145.011 369.5512" clip-path="url(#clipPath2)"/>
      <path d="M152.6176 372.0293 L142.7566 363.5581 L144.0602 369.2415 L139.659 373.0663 Z" clip-path="url(#clipPath2)" stroke="none"/>
      <path fill="none" d="M84.6756 367.9945 L85.9267 366.8222 L95.5409 359.7456 L105.6184 354.1673 L116.1591 350.0872 L127.1631 347.5053 L138.6304 346.4217 L144.2699 346.6177 L144.3687 346.633" clip-path="url(#clipPath2)"/>
      <path d="M152.3548 347.1038 L140.6699 341.4062 L143.3704 346.5741 L140.0814 351.3889 Z" clip-path="url(#clipPath2)" stroke="none"/>
      <path fill="none" d="M84.7892 341.416 L85.9751 340.3308 L95.6238 333.3659 L105.722 327.8546 L116.2696 323.7968 L127.2667 321.1926 L138.7133 320.042 L144.2102 320.182 L144.3092 320.1961" clip-path="url(#clipPath2)"/>
      <path d="M152.3002 320.5761 L140.5512 315.0117 L143.3103 320.1486 L140.0762 325.0005 Z" clip-path="url(#clipPath2)" stroke="none"/>
      <path fill="none" d="M173.8491 375.397 L224.6526 375.397" clip-path="url(#clipPath2)"/>
      <path d="M232.6526 375.397 L220.6526 370.397 L223.6526 375.397 L220.6526 380.397 Z" clip-path="url(#clipPath2)" stroke="none"/>
      <path fill="none" d="M173.8491 322.1015 L224.6526 322.1015" clip-path="url(#clipPath2)"/>
      <path d="M232.6526 322.1015 L220.6526 317.1015 L223.6526 322.1015 L220.6526 327.1015 Z" clip-path="url(#clipPath2)" stroke="none"/>
      <path fill="none" d="M173.8491 348.7492 L224.6526 348.7492" clip-path="url(#clipPath2)"/>
      <path d="M232.6526 348.7492 L220.6526 343.7492 L223.6526 348.7492 L220.6526 353.7492 Z" clip-path="url(#clipPath2)" stroke="none"/>
    </g>
  </g>
</svg>
